<?xml version="1.0" encoding="UTF-8"?>
<svg id="Camada_1" data-name="Camada 1" xmlns="http://www.w3.org/2000/svg" viewBox="0 0 270 270">
  <defs>
    <style>
      .cls-1 {
        fill: #fbfaf8;
        stroke-width: 0px;
      }
    </style>
  </defs>
  <path class="cls-1" d="m135,267.92C61.71,267.92,2.08,208.29,2.08,135S61.71,2.08,135,2.08s132.92,59.63,132.92,132.92-59.63,132.92-132.92,132.92Zm0-261.69C64,6.23,6.23,64,6.23,135s57.77,128.77,128.77,128.77,128.77-57.76,128.77-128.77S206,6.23,135,6.23Z"/>
  <path class="cls-1" d="m190.93,270h-111.86L0,190.93v-111.85L79.07,0h111.86l79.07,79.07v111.85l-79.07,79.07Zm-110.14-4.15h108.42l76.64-76.64v-108.41L189.21,4.15h-108.42L4.15,80.79v108.41l76.64,76.64Z"/>
  <g>
    <path class="cls-1" d="m184.37,107.04c-16.48,28.54-32.83,56.87-49.4,85.56-16.53-28.62-32.9-56.97-49.4-85.56h98.8Z"/>
    <path class="cls-1" d="m146.02,196.52c15.96-27.64,31.57-54.68,47.36-82.03,8.98,23.54,17.84,46.75,26.76,70.14-24.7,3.96-49.13,7.88-74.12,11.89Z"/>
    <path class="cls-1" d="m49.82,184.61c8.93-23.4,17.78-46.6,26.76-70.12,15.81,27.38,31.42,54.43,47.34,82-24.92-4-49.31-7.91-74.1-11.88Z"/>
    <path class="cls-1" d="m87.77,95.18c15.82-19.45,31.43-38.66,47.2-58.05,15.78,19.4,31.39,38.6,47.2,58.05h-94.41Z"/>
    <path class="cls-1" d="m160.03,49.1c18.75,10.83,37.51,21.66,56.49,32.62-6.95,4.02-13.71,7.93-20.7,11.97-12.02-14.78-24.03-29.55-36.04-44.32.08-.09.16-.18.24-.27Z"/>
    <path class="cls-1" d="m197.13,200.39c-18.68,10.79-37.36,21.57-56.27,32.49v-23.85c18.65-2.99,37.38-6,56.11-9.01.05.12.1.25.15.37Z"/>
    <path class="cls-1" d="m73.04,200.01c18.65,2.99,37.3,5.99,56.06,9v23.86c-18.82-10.86-37.51-21.65-56.21-32.45.05-.14.1-.27.15-.41Z"/>
    <path class="cls-1" d="m110.13,49.41c-11.96,14.71-23.91,29.41-35.99,44.26-6.88-3.98-13.69-7.91-20.69-11.95,18.93-10.93,37.66-21.75,56.39-32.56.1.08.19.17.29.25Z"/>
    <path class="cls-1" d="m47.81,91.78c6.93,4,13.68,7.89,20.56,11.87-6.79,17.79-13.53,35.45-20.27,53.12-.1-.02-.2-.05-.29-.07v-64.92Z"/>
    <path class="cls-1" d="m222.19,91.76v64.94c-.11.03-.22.07-.33.1-6.74-17.65-13.47-35.3-20.28-53.14,6.81-3.93,13.56-7.83,20.61-11.91Z"/>
  </g>
</svg>