<?xml version="1.0" encoding="UTF-8"?>
<svg id="Camada_1" data-name="Camada 1" xmlns="http://www.w3.org/2000/svg" viewBox="0 0 469.36 111.57">
  <defs>
    <style>
      .cls-1 {
        stroke-width: 0px;
      }
    </style>
  </defs>
  <path class="cls-1" d="m134.06,80.97c-11.09.05-21.88.08-32.66.14-24.98.14-49.96.35-74.94.44C11.61,81.6.15,70.47,0,56.08c-.15-14.52,11.25-25.93,26.23-26.04,34.15-.26,68.29-.43,102.44-.64,1.52,0,3.05-.02,5.07-.04-.03-9.63-.06-19.16-.09-29.11,14-.08,27.89-.16,42.05-.25.06,9.85.12,19.51.19,29.55,98.63.83,196.36,9.88,293.48,26.33-48.44,7.44-97,13.84-145.87,17.77-48.94,3.93-97.96,5.98-147.29,6.14.05,10.54.1,20.87.15,31.55-14.02.08-27.83.16-42.05.25-.09-10.17-.17-20.15-.26-30.6Zm14.89-65.59c.16,27.1.31,53.86.47,80.88,4-.04,7.74-.08,11.63-.13-.16-27.11-.31-53.87-.47-80.82-3.95.02-7.53.04-11.63.06Z"/>
</svg>