<?xml version="1.0" encoding="UTF-8"?>
<svg id="Camada_2" data-name="Camada 2" xmlns="http://www.w3.org/2000/svg" viewBox="0 0 570.65 730.3">
  <defs>
    <style>
      .cls-1, .cls-2, .cls-3, .cls-4, .cls-5, .cls-6, .cls-7, .cls-8, .cls-9, .cls-10, .cls-11 {
        stroke-miterlimit: 10;
      }

      .cls-1, .cls-12, .cls-4, .cls-5, .cls-6, .cls-8, .cls-13, .cls-9, .cls-11 {
        stroke: #1d1d1b;
      }

      .cls-1, .cls-5, .cls-14, .cls-11 {
        fill: #1d1d1b;
      }

      .cls-1, .cls-10 {
        stroke-width: .24px;
      }

      .cls-2, .cls-3, .cls-12, .cls-4, .cls-9 {
        fill: none;
      }

      .cls-2, .cls-7 {
        stroke: #000;
      }

      .cls-3, .cls-10 {
        stroke: #fff;
      }

      .cls-15 {
        fill: #c4c5c8;
      }

      .cls-15, .cls-16, .cls-17, .cls-18, .cls-19, .cls-20, .cls-14, .cls-21 {
        stroke-width: 0px;
      }

      .cls-17 {
        fill: #e4e5e6;
      }

      .cls-12 {
        stroke-width: .98px;
      }

      .cls-12, .cls-13 {
        stroke-linecap: round;
        stroke-linejoin: round;
      }

      .cls-4 {
        stroke-width: .82px;
      }

      .cls-18, .cls-7, .cls-8, .cls-13, .cls-10 {
        fill: #fff;
      }

      .cls-5 {
        stroke-width: .02px;
      }

      .cls-6, .cls-13 {
        stroke-width: 1.96px;
      }

      .cls-6, .cls-21 {
        fill: #f2f2f2;
      }

      .cls-8, .cls-9 {
        stroke-width: .96px;
      }

      .cls-19 {
        fill: #ddddde;
      }

      .cls-20 {
        fill: #e6e6e7;
      }

      .cls-11 {
        stroke-width: .02px;
      }
    </style>
  </defs>
  <g id="Camada_3" data-name="Camada 3">
    <polygon class="cls-18" points="77.43 273.74 176.01 273.74 181.94 267.81 181.94 264.27 175.74 258.34 76.85 258.34 74.11 261.09 75.87 262.8 75.87 269.92 74.55 271.24 76.85 273.74 77.43 273.74"/>
    <polygon class="cls-18" points="38.64 277.62 68.17 277.62 75.87 269.92 75.87 262.8 68.17 255.1 38.64 255.1 30.94 262.8 30.94 269.92 38.64 277.62"/>
  </g>
  <g id="Camada_5" data-name="Camada 5">
    <polygon class="cls-18" points="38.64 118.66 30.94 126.36 30.94 133.47 38.64 141.17 68.17 141.17 69.89 139.46 177.89 139.46 182 134.76 182 124.44 177.3 119.74 69.25 119.74 68.17 118.66 38.64 118.66"/>
    <polygon class="cls-18" points="34.34 180.86 38.84 176.36 67.96 176.36 72.05 180.45 77.69 180.86 82.4 185.57 82.4 227.99 77.69 232.7 29.11 232.7 24.4 227.99 24.4 185.57 29.11 180.86 34.34 180.86"/>
    <polygon class="cls-18" points="34.34 248.12 38.84 243.62 67.96 243.62 72.05 247.71 77.69 248.12 82.4 252.84 82.4 295.25 77.69 299.96 29.11 299.96 24.4 295.25 24.4 252.84 29.11 248.12 34.34 248.12"/>
    <polygon class="cls-18" points="34.34 315.39 38.84 310.89 67.96 310.89 72.05 314.98 77.69 315.39 82.4 320.1 82.4 362.51 77.69 367.22 29.11 367.22 24.4 362.51 24.4 320.1 29.11 315.39 34.34 315.39"/>
    <polygon class="cls-18" points="34.34 382.65 38.84 378.15 67.96 378.15 72.05 382.24 77.69 382.65 82.4 387.36 82.4 429.78 77.69 434.49 29.11 434.49 24.4 429.78 24.4 387.36 29.11 382.65 34.34 382.65"/>
    <polygon class="cls-18" points="34.34 449.91 38.84 445.41 67.96 445.41 72.05 449.5 77.69 449.91 82.4 454.63 82.4 497.04 77.69 501.75 29.11 501.75 24.4 497.04 24.4 454.63 29.11 449.91 34.34 449.91"/>
    <polygon class="cls-18" points="34.34 517.18 38.84 512.68 67.96 512.68 72.05 516.77 77.69 517.18 82.4 521.89 82.4 564.3 77.69 569.02 29.11 569.02 24.4 564.3 24.4 521.89 29.11 517.18 34.34 517.18"/>
  </g>
  <g id="Camada_2-2" data-name="Camada 2">
    <g>
      <path class="cls-17" d="m188.36,111.1H21.6l-3.56,3.54v457.65l3.56,3.54h166.76l3.56-3.54V114.64l-3.56-3.54Z"/>
      <polygon class="cls-3" points="22.84 572.83 21.04 571.04 21.04 115.89 22.84 114.1 187.12 114.1 188.92 115.89 188.92 571.04 187.12 572.83 22.84 572.83"/>
    </g>
    <path class="cls-15" d="m372.89,110.62h-166.76l-3.56,3.54v229.55l3.56,3.54h166.76l3.56-3.54V114.16l-3.56-3.54Z"/>
    <polygon class="cls-3" points="207.37 344.25 205.57 342.46 205.57 115.4 207.37 113.62 371.66 113.62 373.45 115.4 373.45 342.46 371.66 344.25 207.37 344.25"/>
    <path class="cls-15" d="m554.77,110.62h-166.76l-3.56,3.54v229.55l3.56,3.54h166.76l3.56-3.54V114.16l-3.56-3.54Z"/>
    <polygon class="cls-3" points="389.25 344.25 387.45 342.46 387.45 115.4 389.25 113.62 553.54 113.62 555.33 115.4 555.33 342.46 553.54 344.25 389.25 344.25"/>
    <line class="cls-4" x1="556.91" y1="359.79" x2="556.93" y2="570.87"/>
    <line class="cls-4" x1="390.3" y1="359.79" x2="390.32" y2="570.87"/>
    <polyline class="cls-4" points="412.07 354.83 391.16 354.83 387.1 358.89 387.1 374.74"/>
    <line class="cls-4" x1="395.26" y1="354.83" x2="387.13" y2="362.97"/>
    <polyline class="cls-4" points="412.07 354.83 555.87 354.83 559.93 358.89 559.93 374.74"/>
    <line class="cls-4" x1="551.75" y1="354.81" x2="559.9" y2="362.97"/>
    <polyline class="cls-4" points="412.08 575.83 391.18 575.83 387.12 571.78 387.1 374.26"/>
    <polyline class="cls-4" points="392.2 572.76 387.14 567.7 395.22 575.78"/>
    <polyline class="cls-4" points="412.09 575.83 555.89 575.83 559.94 571.78 559.93 374.26"/>
    <polyline class="cls-4" points="554.87 572.76 559.92 567.7 551.85 575.78"/>
    <line class="cls-4" x1="372.33" y1="359.79" x2="372.34" y2="570.87"/>
    <line class="cls-4" x1="205.72" y1="359.79" x2="205.74" y2="570.87"/>
    <polyline class="cls-4" points="227.49 354.83 206.58 354.83 202.52 358.89 202.52 374.74"/>
    <line class="cls-4" x1="210.68" y1="354.83" x2="202.54" y2="362.97"/>
    <polyline class="cls-4" points="227.49 354.83 371.29 354.83 375.34 358.89 375.34 374.74"/>
    <line class="cls-4" x1="367.17" y1="354.81" x2="375.32" y2="362.97"/>
    <polyline class="cls-4" points="227.5 575.83 206.6 575.83 202.54 571.78 202.52 374.26"/>
    <polyline class="cls-4" points="207.62 572.76 202.56 567.7 210.64 575.78"/>
    <polyline class="cls-4" points="227.51 575.83 371.31 575.83 375.36 571.78 375.34 374.26"/>
    <polyline class="cls-4" points="370.29 572.76 375.34 567.7 367.27 575.78"/>
    <line class="cls-4" x1="365.95" y1="248.68" x2="365.95" y2="281.94"/>
    <line class="cls-4" x1="214.03" y1="248.68" x2="214.03" y2="281.94"/>
    <polyline class="cls-4" points="235.8 243.72 214.89 243.72 210.84 247.77 210.84 263.62"/>
    <line class="cls-4" x1="218.99" y1="243.72" x2="210.86" y2="251.85"/>
    <polyline class="cls-4" points="235.8 243.72 364.92 243.72 368.97 247.77 368.97 263.62"/>
    <line class="cls-4" x1="360.8" y1="243.69" x2="368.95" y2="251.85"/>
    <polyline class="cls-4" points="235.79 286.9 214.89 286.9 210.84 282.85 210.84 263.14"/>
    <polyline class="cls-4" points="215.91 283.82 210.86 278.77 218.93 286.85"/>
    <polyline class="cls-4" points="235.8 286.9 364.92 286.9 368.97 282.85 368.97 263.14"/>
    <polyline class="cls-4" points="363.9 283.82 368.95 278.77 360.87 286.85"/>
    <path class="cls-9" d="m248.02,123.78l-15.56-4.68-15.56,4.68c.02,4.25-.91,7.87-6.07,9.54v13.7c3.32,10.52,10.11,19,21.63,24.67,11.52-5.67,18.31-14.14,21.63-24.67v-13.7c-5.16-1.68-6.02-4.44-6.07-9.54Z"/>
    <path class="cls-8" d="m248.02,123.78l-15.56-4.68-15.56,4.68c.02,4.25-.91,7.87-6.07,9.54v13.7c3.32,10.52,10.11,19,21.63,24.67,11.52-5.67,18.31-14.14,21.63-24.67v-13.7c-5.16-1.68-6.02-4.44-6.07-9.54Z"/>
    <path class="cls-9" d="m232.47,169.45c-9.92-5.12-16.35-12.57-19.63-22.74v-12.01c4.06-1.79,6.25-5.14,6.19-9.47l13.44-4.04,13.44,4.04c-.06,4.33,2.13,7.67,6.19,9.47v12.01c-3.28,10.17-9.71,17.62-19.63,22.74Z"/>
    <polygon class="cls-18" points="34.34 180.86 38.84 176.36 67.96 176.36 72.05 180.45 77.69 180.86 82.4 185.57 82.4 227.99 77.69 232.7 29.11 232.7 24.4 227.99 24.4 185.57 29.11 180.86 34.34 180.86"/>
    <circle class="cls-14" cx="182.89" cy="243.15" r="1.26"/>
    <line class="cls-9" x1="94.52" y1="243.15" x2="85.3" y2="249.29"/>
    <polyline class="cls-9" points="78.85 249.29 85.3 249.29 90.11 243.15 182 243.15"/>
    <polyline class="cls-9" points="53.41 243.62 67.96 243.62 72.46 248.12 61.18 262.73 53.41 262.73"/>
    <polyline class="cls-9" points="53.4 243.62 38.84 243.62 34.34 248.12 45.62 262.73 53.4 262.73"/>
    <polyline class="cls-9" points="34.34 248.12 29.11 248.12 24.4 252.84 24.4 275.73"/>
    <path class="cls-9" d="m37.1,251.7c-.73.15-6.8,0-6.8,0l-5.87,5.87"/>
    <polyline class="cls-9" points="72.46 248.12 77.69 248.12 82.4 252.84 82.4 275.73"/>
    <path class="cls-9" d="m69.7,251.7c.73.15,6.8,0,6.8,0l5.87,5.87"/>
    <polyline class="cls-9" points="53.4 299.96 29.11 299.96 24.4 295.25 24.4 272.35"/>
    <path class="cls-9" d="m76.51,296.39H30.3l-5.87-5.87,9.38,9.38"/>
    <polyline class="cls-9" points="53.41 299.96 77.69 299.96 82.4 295.25 82.4 272.35"/>
    <polyline class="cls-9" points="76.51 296.39 82.38 290.51 73 299.9"/>
    <circle class="cls-14" cx="182.89" cy="310.41" r="1.26"/>
    <line class="cls-9" x1="94.52" y1="310.41" x2="85.3" y2="316.55"/>
    <polyline class="cls-9" points="78.85 316.55 85.3 316.55 90.11 310.41 182 310.41"/>
    <polyline class="cls-9" points="53.41 310.89 67.96 310.89 72.46 315.39 61.18 330 53.41 330"/>
    <polyline class="cls-9" points="53.4 310.89 38.84 310.89 34.34 315.39 45.62 330 53.4 330"/>
    <polyline class="cls-9" points="34.34 315.39 29.11 315.39 24.4 320.1 24.4 343"/>
    <path class="cls-9" d="m37.1,318.96c-.73.15-6.8,0-6.8,0l-5.87,5.87"/>
    <polyline class="cls-9" points="72.46 315.39 77.69 315.39 82.4 320.1 82.4 343"/>
    <path class="cls-9" d="m69.7,318.96c.73.15,6.8,0,6.8,0l5.87,5.87"/>
    <polyline class="cls-9" points="53.4 367.22 29.11 367.22 24.4 362.51 24.4 339.61"/>
    <path class="cls-9" d="m76.51,363.65H30.3l-5.87-5.87,9.38,9.38"/>
    <polyline class="cls-9" points="53.41 367.22 77.69 367.22 82.4 362.51 82.4 339.61"/>
    <polyline class="cls-9" points="76.51 363.65 82.38 357.78 73 367.16"/>
    <circle class="cls-14" cx="182.89" cy="377.68" r="1.26"/>
    <line class="cls-9" x1="94.52" y1="377.68" x2="85.3" y2="383.81"/>
    <polyline class="cls-9" points="78.85 383.81 85.3 383.81 90.11 377.68 182 377.68"/>
    <polyline class="cls-9" points="53.41 378.15 67.96 378.15 72.46 382.65 61.18 397.26 53.41 397.26"/>
    <polyline class="cls-9" points="53.4 378.15 38.84 378.15 34.34 382.65 45.62 397.26 53.4 397.26"/>
    <polyline class="cls-9" points="34.34 382.65 29.11 382.65 24.4 387.36 24.4 410.26"/>
    <path class="cls-9" d="m37.1,386.22c-.73.15-6.8,0-6.8,0l-5.87,5.87"/>
    <polyline class="cls-9" points="72.46 382.65 77.69 382.65 82.4 387.36 82.4 410.26"/>
    <path class="cls-9" d="m69.7,386.22c.73.15,6.8,0,6.8,0l5.87,5.87"/>
    <polyline class="cls-9" points="53.4 434.49 29.11 434.49 24.4 429.78 24.4 406.88"/>
    <path class="cls-9" d="m76.51,430.91H30.3l-5.87-5.87,9.38,9.38"/>
    <polyline class="cls-9" points="53.41 434.49 77.69 434.49 82.4 429.78 82.4 406.88"/>
    <polyline class="cls-9" points="76.51 430.91 82.38 425.04 73 434.42"/>
    <circle class="cls-14" cx="182.89" cy="444.94" r="1.26"/>
    <line class="cls-9" x1="94.52" y1="444.94" x2="85.3" y2="451.08"/>
    <polyline class="cls-9" points="78.85 451.08 85.3 451.08 90.11 444.94 182 444.94"/>
    <polyline class="cls-9" points="53.41 445.41 67.96 445.41 72.46 449.91 61.18 464.52 53.41 464.52"/>
    <polyline class="cls-9" points="53.4 445.41 38.84 445.41 34.34 449.91 45.62 464.52 53.4 464.52"/>
    <polyline class="cls-9" points="34.34 449.91 29.11 449.91 24.4 454.63 24.4 477.52"/>
    <path class="cls-9" d="m37.1,453.49c-.73.15-6.8,0-6.8,0l-5.87,5.87"/>
    <polyline class="cls-9" points="72.46 449.91 77.69 449.91 82.4 454.63 82.4 477.52"/>
    <path class="cls-9" d="m69.7,453.49c.73.15,6.8,0,6.8,0l5.87,5.87"/>
    <polyline class="cls-9" points="53.4 501.75 29.11 501.75 24.4 497.04 24.4 474.14"/>
    <path class="cls-9" d="m76.51,498.18H30.3l-5.87-5.87,9.38,9.38"/>
    <polyline class="cls-9" points="53.41 501.75 77.69 501.75 82.4 497.04 82.4 474.14"/>
    <polyline class="cls-9" points="76.51 498.18 82.38 492.3 73 501.69"/>
    <circle class="cls-14" cx="182.89" cy="512.2" r="1.26"/>
    <line class="cls-9" x1="94.52" y1="512.2" x2="85.3" y2="518.34"/>
    <polyline class="cls-9" points="78.85 518.34 85.3 518.34 90.11 512.2 182 512.2"/>
    <polyline class="cls-9" points="53.41 512.68 67.96 512.68 72.46 517.18 61.18 531.79 53.41 531.79"/>
    <polyline class="cls-9" points="53.4 512.68 38.84 512.68 34.34 517.18 45.62 531.79 53.4 531.79"/>
    <polyline class="cls-9" points="34.34 517.18 29.11 517.18 24.4 521.89 24.4 544.79"/>
    <path class="cls-9" d="m37.1,520.75c-.73.15-6.8,0-6.8,0l-5.87,5.87"/>
    <polyline class="cls-9" points="72.46 517.18 77.69 517.18 82.4 521.89 82.4 544.79"/>
    <path class="cls-9" d="m69.7,520.75c.73.15,6.8,0,6.8,0l5.87,5.87"/>
    <polyline class="cls-9" points="53.4 569.02 29.11 569.02 24.4 564.3 24.4 541.4"/>
    <path class="cls-9" d="m76.51,565.44H30.3l-5.87-5.87,9.38,9.38"/>
    <polyline class="cls-9" points="53.41 569.02 77.69 569.02 82.4 564.3 82.4 541.4"/>
    <polyline class="cls-9" points="76.51 565.44 82.38 559.57 73 568.95"/>
    <line class="cls-9" x1="252.1" y1="134.7" x2="254.1" y2="133.32"/>
    <line class="cls-9" x1="252.1" y1="146.71" x2="254.1" y2="147.02"/>
    <line class="cls-9" x1="245.91" y1="125.23" x2="247.73" y2="123.69"/>
    <line class="cls-9" x1="219.03" y1="125.23" x2="217.24" y2="123.45"/>
    <line class="cls-9" x1="212.84" y1="134.7" x2="210.84" y2="133.32"/>
    <line class="cls-9" x1="212.52" y1="146.71" x2="210.84" y2="147.02"/>
    <polygon class="cls-18" points="38.64 118.66 30.94 126.36 30.94 133.47 38.64 141.17 68.17 141.17 69.89 139.46 177.89 139.46 182 134.76 182 124.44 177.3 119.74 69.25 119.74 68.17 118.66 38.64 118.66"/>
    <g>
      <polyline class="cls-9" points="53.41 118.66 38.64 118.66 30.94 126.36 30.94 129.6"/>
      <polyline class="cls-9" points="41.51 118.66 34.34 125.83 34.34 129.6"/>
      <polyline class="cls-9" points="53.41 118.66 68.17 118.66 75.87 126.36 75.87 129.6"/>
      <polyline class="cls-9" points="65.3 118.66 72.47 125.83 72.47 129.6"/>
      <polyline class="cls-9" points="53.41 141.17 38.64 141.17 30.94 133.47 30.94 128.82"/>
      <polyline class="cls-9" points="41.51 141.17 34.34 134 34.34 128.82"/>
      <polyline class="cls-9" points="53.41 141.17 68.17 141.17 75.87 133.47 75.87 128.82"/>
      <polyline class="cls-9" points="65.3 141.17 72.47 134 72.47 128.22"/>
    </g>
    <line class="cls-9" x1="32.77" y1="129.6" x2="35.91" y2="129.6"/>
    <line class="cls-9" x1="70.91" y1="129.6" x2="74.04" y2="129.6"/>
    <polyline class="cls-9" points="69.25 119.74 177.3 119.74 182 124.44 182 129.6"/>
    <line class="cls-9" x1="173.85" y1="119.74" x2="181.94" y2="127.82"/>
    <line class="cls-9" x1="176.01" y1="121.9" x2="71.64" y2="121.9"/>
    <polyline class="cls-9" points="69.8 139.46 177.3 139.46 182 134.76 182 129.6"/>
    <line class="cls-9" x1="173.85" y1="139.46" x2="181.94" y2="131.37"/>
    <line class="cls-9" x1="176.01" y1="137.29" x2="72.18" y2="137.29"/>
    <line class="cls-9" x1="76.85" y1="121.9" x2="74.13" y2="124.62"/>
    <polygon class="cls-18" points="38.64 145.94 30.94 153.65 30.94 160.76 38.64 168.46 68.17 168.46 69.89 166.74 177.89 166.74 182 162.04 182 151.73 177.3 147.02 69.25 147.02 68.17 145.94 38.64 145.94"/>
    <polygon class="cls-18" points="38.64 145.94 30.94 153.65 30.94 160.76 38.64 168.46 68.17 168.46 69.89 166.74 177.89 166.74 182 162.04 182 151.73 177.3 147.02 69.25 147.02 68.17 145.94 38.64 145.94"/>
    <polygon class="cls-18" points="38.64 145.94 30.94 153.65 30.94 160.76 38.64 168.46 68.17 168.46 69.89 166.74 177.89 166.74 182 162.04 182 151.73 177.3 147.02 69.25 147.02 68.17 145.94 38.64 145.94"/>
    <g>
      <polyline class="cls-9" points="53.41 145.94 38.64 145.94 30.94 153.65 30.94 156.88"/>
      <polyline class="cls-9" points="41.51 145.94 34.34 153.11 34.34 156.88"/>
      <polyline class="cls-9" points="53.41 145.94 68.17 145.94 75.87 153.65 75.87 156.88"/>
      <polyline class="cls-9" points="65.3 145.94 72.47 153.11 72.47 156.88"/>
      <polyline class="cls-9" points="53.41 168.46 38.64 168.46 30.94 160.76 30.94 156.11"/>
      <polyline class="cls-9" points="41.51 168.46 34.34 161.29 34.34 156.11"/>
      <polyline class="cls-9" points="53.41 168.46 68.17 168.46 75.87 160.76 75.87 156.11"/>
      <polyline class="cls-9" points="65.3 168.46 72.47 161.29 72.47 155.5"/>
    </g>
    <line class="cls-9" x1="32.77" y1="156.88" x2="35.91" y2="156.88"/>
    <line class="cls-9" x1="70.91" y1="156.88" x2="74.04" y2="156.88"/>
    <polyline class="cls-9" points="69.25 147.02 177.3 147.02 182 151.73 182 156.88"/>
    <line class="cls-9" x1="173.85" y1="147.02" x2="181.94" y2="155.11"/>
    <line class="cls-9" x1="176.01" y1="149.19" x2="71.64" y2="149.19"/>
    <polyline class="cls-9" points="69.8 166.74 177.3 166.74 182 162.04 182 156.88"/>
    <line class="cls-9" x1="173.85" y1="166.74" x2="181.94" y2="158.66"/>
    <line class="cls-9" x1="176.01" y1="164.58" x2="72.18" y2="164.58"/>
    <line class="cls-9" x1="76.85" y1="149.19" x2="74.13" y2="151.91"/>
    <circle class="cls-14" cx="182.89" cy="175.88" r="1.26"/>
    <line class="cls-9" x1="94.52" y1="175.88" x2="85.3" y2="182.02"/>
    <polyline class="cls-9" points="78.85 182.02 85.3 182.02 90.11 175.88 182 175.88"/>
    <polyline class="cls-9" points="53.41 176.36 67.96 176.36 72.46 180.86 61.18 195.47 53.41 195.47"/>
    <polyline class="cls-9" points="53.4 176.36 38.84 176.36 34.34 180.86 45.62 195.47 53.4 195.47"/>
    <polyline class="cls-9" points="24.4 208.47 24.4 185.57 29.11 180.86 34.34 180.86"/>
    <path class="cls-9" d="m37.1,184.43c-.73.15-6.8,0-6.8,0l-5.87,5.87"/>
    <polyline class="cls-9" points="72.46 180.86 77.69 180.86 82.4 185.57 82.4 208.47"/>
    <path class="cls-9" d="m69.7,184.43c.73.15,6.8,0,6.8,0l5.87,5.87"/>
    <polyline class="cls-9" points="53.4 232.7 29.11 232.7 24.4 227.99 24.4 205.09"/>
    <path class="cls-9" d="m76.51,229.12H30.3l-5.87-5.87,9.38,9.38"/>
    <polyline class="cls-9" points="53.41 232.7 77.69 232.7 82.4 227.99 82.4 205.09"/>
    <polyline class="cls-9" points="76.51 229.12 82.38 223.25 73 232.63"/>
    <polygon class="cls-18" points="34.34 248.12 38.84 243.62 67.96 243.62 72.05 247.71 77.69 248.12 82.4 252.84 82.4 295.25 77.69 299.96 29.11 299.96 24.4 295.25 24.4 252.84 29.11 248.12 34.34 248.12"/>
    <circle class="cls-14" cx="182.89" cy="243.15" r="1.26"/>
    <line class="cls-9" x1="94.52" y1="243.15" x2="85.3" y2="249.29"/>
    <polyline class="cls-9" points="78.85 249.29 85.3 249.29 90.11 243.15 182 243.15"/>
    <polyline class="cls-9" points="53.41 243.62 67.96 243.62 72.46 248.12 61.18 262.73 53.41 262.73"/>
    <polyline class="cls-9" points="53.4 243.62 38.84 243.62 34.34 248.12 45.62 262.73 53.4 262.73"/>
    <polyline class="cls-9" points="24.4 275.73 24.4 252.84 29.11 248.12 34.34 248.12"/>
    <path class="cls-9" d="m37.1,251.7c-.73.15-6.8,0-6.8,0l-5.87,5.87"/>
    <polyline class="cls-9" points="72.46 248.12 77.69 248.12 82.4 252.84 82.4 275.73"/>
    <path class="cls-9" d="m69.7,251.7c.73.15,6.8,0,6.8,0l5.87,5.87"/>
    <polyline class="cls-9" points="53.4 299.96 29.11 299.96 24.4 295.25 24.4 272.35"/>
    <path class="cls-9" d="m76.51,296.39H30.3l-5.87-5.87,9.38,9.38"/>
    <polyline class="cls-9" points="53.41 299.96 77.69 299.96 82.4 295.25 82.4 272.35"/>
    <polyline class="cls-9" points="76.51 296.39 82.38 290.51 73 299.9"/>
    <polygon class="cls-18" points="34.34 315.39 38.84 310.89 67.96 310.89 72.05 314.98 77.69 315.39 82.4 320.1 82.4 362.51 77.69 367.22 29.11 367.22 24.4 362.51 24.4 320.1 29.11 315.39 34.34 315.39"/>
    <circle class="cls-14" cx="182.89" cy="310.41" r="1.26"/>
    <line class="cls-9" x1="94.52" y1="310.41" x2="85.3" y2="316.55"/>
    <polyline class="cls-9" points="78.85 316.55 85.3 316.55 90.11 310.41 182 310.41"/>
    <polyline class="cls-9" points="53.41 310.89 67.96 310.89 72.46 315.39 61.18 330 53.41 330"/>
    <polyline class="cls-9" points="53.4 310.89 38.84 310.89 34.34 315.39 45.62 330 53.4 330"/>
    <polyline class="cls-9" points="24.4 343 24.4 320.1 29.11 315.39 34.34 315.39"/>
    <path class="cls-9" d="m37.1,318.96c-.73.15-6.8,0-6.8,0l-5.87,5.87"/>
    <polyline class="cls-9" points="72.46 315.39 77.69 315.39 82.4 320.1 82.4 343"/>
    <path class="cls-9" d="m69.7,318.96c.73.15,6.8,0,6.8,0l5.87,5.87"/>
    <polyline class="cls-9" points="53.4 367.22 29.11 367.22 24.4 362.51 24.4 339.61"/>
    <path class="cls-9" d="m76.51,363.65H30.3l-5.87-5.87,9.38,9.38"/>
    <polyline class="cls-9" points="53.41 367.22 77.69 367.22 82.4 362.51 82.4 339.61"/>
    <polyline class="cls-9" points="76.51 363.65 82.38 357.78 73 367.16"/>
    <polygon class="cls-18" points="34.34 382.65 38.84 378.15 67.96 378.15 72.05 382.24 77.69 382.65 82.4 387.36 82.4 429.78 77.69 434.49 29.11 434.49 24.4 429.78 24.4 387.36 29.11 382.65 34.34 382.65"/>
    <circle class="cls-14" cx="182.89" cy="377.68" r="1.26"/>
    <line class="cls-9" x1="94.52" y1="377.68" x2="85.3" y2="383.81"/>
    <polyline class="cls-9" points="78.85 383.81 85.3 383.81 90.11 377.68 182 377.68"/>
    <polyline class="cls-9" points="53.41 378.15 67.96 378.15 72.46 382.65 61.18 397.26 53.41 397.26"/>
    <polyline class="cls-9" points="53.4 378.15 38.84 378.15 34.34 382.65 45.62 397.26 53.4 397.26"/>
    <polyline class="cls-9" points="24.4 410.26 24.4 387.36 29.11 382.65 34.34 382.65"/>
    <path class="cls-9" d="m37.1,386.22c-.73.15-6.8,0-6.8,0l-5.87,5.87"/>
    <polyline class="cls-9" points="72.46 382.65 77.69 382.65 82.4 387.36 82.4 410.26"/>
    <path class="cls-9" d="m69.7,386.22c.73.15,6.8,0,6.8,0l5.87,5.87"/>
    <polyline class="cls-9" points="53.4 434.49 29.11 434.49 24.4 429.78 24.4 406.88"/>
    <path class="cls-9" d="m76.51,430.91H30.3l-5.87-5.87,9.38,9.38"/>
    <polyline class="cls-9" points="53.41 434.49 77.69 434.49 82.4 429.78 82.4 406.88"/>
    <polyline class="cls-9" points="76.51 430.91 82.38 425.04 73 434.42"/>
    <polygon class="cls-18" points="34.34 449.91 38.84 445.41 67.96 445.41 72.05 449.5 77.69 449.91 82.4 454.63 82.4 497.04 77.69 501.75 29.11 501.75 24.4 497.04 24.4 454.63 29.11 449.91 34.34 449.91"/>
    <circle class="cls-14" cx="182.89" cy="444.94" r="1.26"/>
    <line class="cls-9" x1="94.52" y1="444.94" x2="85.3" y2="451.08"/>
    <polyline class="cls-9" points="78.85 451.08 85.3 451.08 90.11 444.94 182 444.94"/>
    <polyline class="cls-9" points="53.41 445.41 67.96 445.41 72.46 449.91 61.18 464.52 53.41 464.52"/>
    <polyline class="cls-9" points="53.4 445.41 38.84 445.41 34.34 449.91 45.62 464.52 53.4 464.52"/>
    <polyline class="cls-9" points="24.4 477.52 24.4 454.63 29.11 449.91 34.34 449.91"/>
    <path class="cls-9" d="m37.1,453.49c-.73.15-6.8,0-6.8,0l-5.87,5.87"/>
    <polyline class="cls-9" points="72.46 449.91 77.69 449.91 82.4 454.63 82.4 477.52"/>
    <path class="cls-9" d="m69.7,453.49c.73.15,6.8,0,6.8,0l5.87,5.87"/>
    <polyline class="cls-9" points="53.4 501.75 29.11 501.75 24.4 497.04 24.4 474.14"/>
    <path class="cls-9" d="m76.51,498.18H30.3l-5.87-5.87,9.38,9.38"/>
    <polyline class="cls-9" points="53.41 501.75 77.69 501.75 82.4 497.04 82.4 474.14"/>
    <polyline class="cls-9" points="76.51 498.18 82.38 492.3 73 501.69"/>
    <polygon class="cls-18" points="34.34 517.18 38.84 512.68 67.96 512.68 72.05 516.77 77.69 517.18 82.4 521.89 82.4 564.3 77.69 569.02 29.11 569.02 24.4 564.3 24.4 521.89 29.11 517.18 34.34 517.18"/>
    <circle class="cls-14" cx="182.89" cy="512.2" r="1.26"/>
    <line class="cls-9" x1="94.52" y1="512.2" x2="85.3" y2="518.34"/>
    <polyline class="cls-9" points="78.85 518.34 85.3 518.34 90.11 512.2 182 512.2"/>
    <polyline class="cls-9" points="53.41 512.68 67.96 512.68 72.46 517.18 61.18 531.79 53.41 531.79"/>
    <polyline class="cls-9" points="53.4 512.68 38.84 512.68 34.34 517.18 45.62 531.79 53.4 531.79"/>
    <polyline class="cls-9" points="24.4 544.79 24.4 521.89 29.11 517.18 34.34 517.18"/>
    <path class="cls-9" d="m37.1,520.75c-.73.15-6.8,0-6.8,0l-5.87,5.87"/>
    <polyline class="cls-9" points="72.46 517.18 77.69 517.18 82.4 521.89 82.4 544.79"/>
    <path class="cls-9" d="m69.7,520.75c.73.15,6.8,0,6.8,0l5.87,5.87"/>
    <polyline class="cls-9" points="53.4 569.02 29.11 569.02 24.4 564.3 24.4 541.4"/>
    <path class="cls-9" d="m76.51,565.44H30.3l-5.87-5.87,9.38,9.38"/>
    <polyline class="cls-9" points="53.41 569.02 77.69 569.02 82.4 564.3 82.4 541.4"/>
    <polyline class="cls-9" points="76.51 565.44 82.38 559.57 73 568.95"/>
    <g>
      <polygon class="cls-18" points="266.06 121.39 307.87 121.39 311.93 125.45 311.93 164.38 307.87 168.44 266.06 168.44 262 164.38 262 125.45 266.06 121.39"/>
      <g>
        <polyline class="cls-4" points="286.97 168.68 307.87 168.68 311.93 164.62 311.93 144.91"/>
        <g>
          <line class="cls-4" x1="308.91" y1="126.59" x2="308.91" y2="163.72"/>
          <line class="cls-4" x1="265.19" y1="126.59" x2="265.19" y2="163.72"/>
          <polyline class="cls-4" points="286.97 121.63 266.06 121.63 262 125.69 262 145.4"/>
          <line class="cls-4" x1="270.15" y1="121.63" x2="262.02" y2="129.77"/>
          <polyline class="cls-4" points="286.97 121.63 307.87 121.63 311.93 125.69 311.93 145.4"/>
          <line class="cls-4" x1="303.75" y1="121.61" x2="311.9" y2="129.77"/>
          <polyline class="cls-4" points="286.96 168.68 266.06 168.68 262 164.62 262 144.91"/>
          <polyline class="cls-4" points="267.08 165.6 262.02 160.54 270.1 168.62"/>
          <polyline class="cls-4" points="306.85 165.6 311.9 160.54 303.83 168.62"/>
        </g>
      </g>
    </g>
    <g>
      <polygon class="cls-18" points="323.11 121.39 364.92 121.39 368.98 125.45 368.98 164.38 364.92 168.44 323.11 168.44 319.05 164.38 319.05 125.45 323.11 121.39"/>
      <g>
        <polyline class="cls-4" points="344.02 168.68 364.92 168.68 368.97 164.62 368.97 144.91"/>
        <g>
          <line class="cls-4" x1="365.96" y1="126.59" x2="365.96" y2="163.72"/>
          <line class="cls-4" x1="322.24" y1="126.59" x2="322.24" y2="163.72"/>
          <polyline class="cls-4" points="344.02 121.63 323.1 121.63 319.05 125.69 319.05 145.4"/>
          <line class="cls-4" x1="327.2" y1="121.63" x2="319.07" y2="129.77"/>
          <polyline class="cls-4" points="344.02 121.63 364.92 121.63 368.97 125.69 368.97 145.4"/>
          <line class="cls-4" x1="360.8" y1="121.61" x2="368.95" y2="129.77"/>
          <polyline class="cls-4" points="344.01 168.68 323.1 168.68 319.05 164.62 319.05 144.91"/>
          <polyline class="cls-4" points="324.12 165.6 319.07 160.54 327.15 168.62"/>
          <polyline class="cls-4" points="363.9 165.6 368.95 160.54 360.88 168.62"/>
        </g>
      </g>
    </g>
    <line class="cls-4" x1="365.95" y1="181.34" x2="365.95" y2="230.29"/>
    <line class="cls-4" x1="214.03" y1="181.34" x2="214.03" y2="230.29"/>
    <polyline class="cls-4" points="235.8 176.38 214.89 176.38 210.84 180.44 210.84 211.97"/>
    <line class="cls-4" x1="218.99" y1="176.38" x2="210.86" y2="184.51"/>
    <polyline class="cls-4" points="235.8 176.38 364.92 176.38 368.97 180.44 368.97 211.97"/>
    <line class="cls-4" x1="360.8" y1="176.36" x2="368.95" y2="184.51"/>
    <polyline class="cls-4" points="235.79 235.25 214.89 235.25 210.84 231.2 210.84 211.49"/>
    <polyline class="cls-4" points="215.91 232.18 210.86 227.12 218.93 235.2"/>
    <polyline class="cls-4" points="235.8 235.25 364.92 235.25 368.97 231.2 368.97 211.49"/>
    <polyline class="cls-4" points="363.9 232.18 368.95 227.12 360.87 235.2"/>
    <g>
      <polygon class="cls-18" points="214.9 176.36 364.92 176.36 368.98 180.42 368.98 230.95 364.92 235.01 214.9 235.01 210.84 230.95 210.84 180.42 214.9 176.36"/>
      <g>
        <polyline class="cls-4" points="235.8 235.25 364.92 235.25 368.98 231.2 368.98 211.49"/>
        <g>
          <line class="cls-4" x1="365.96" y1="181.56" x2="365.96" y2="230.29"/>
          <line class="cls-4" x1="214.03" y1="181.56" x2="214.03" y2="230.29"/>
          <polyline class="cls-4" points="235.8 176.6 214.89 176.6 210.84 180.66 210.84 211.97"/>
          <line class="cls-4" x1="218.99" y1="176.6" x2="210.86" y2="184.73"/>
          <polyline class="cls-4" points="235.8 176.6 364.92 176.6 368.98 180.66 368.98 211.97"/>
          <line class="cls-4" x1="360.8" y1="176.58" x2="368.96" y2="184.73"/>
          <polyline class="cls-4" points="235.79 235.25 214.89 235.25 210.84 231.2 210.84 211.49"/>
          <polyline class="cls-4" points="215.91 232.18 210.86 227.12 218.93 235.2"/>
          <polyline class="cls-4" points="363.9 232.18 368.96 227.12 360.88 235.2"/>
        </g>
      </g>
    </g>
    <polyline class="cls-4" points="235.8 243.17 214.89 243.17 210.84 247.22 210.84 278.76"/>
    <line class="cls-4" x1="218.99" y1="243.17" x2="210.86" y2="251.3"/>
    <polyline class="cls-4" points="235.8 243.17 364.92 243.17 368.97 247.22 368.97 278.76"/>
    <line class="cls-4" x1="360.8" y1="243.15" x2="368.95" y2="251.3"/>
    <g>
      <polygon class="cls-18" points="214.9 243.15 364.92 243.15 368.98 247.2 368.98 282.6 364.92 286.66 214.9 286.66 210.84 282.6 210.84 247.2 214.9 243.15"/>
      <g>
        <polyline class="cls-4" points="235.8 286.9 364.92 286.9 368.98 282.85 368.98 263.14"/>
        <g>
          <line class="cls-4" x1="365.96" y1="248.35" x2="365.96" y2="281.94"/>
          <line class="cls-4" x1="214.03" y1="248.35" x2="214.03" y2="281.94"/>
          <polyline class="cls-4" points="235.8 243.39 214.89 243.39 210.84 247.44 210.84 263.62"/>
          <line class="cls-4" x1="218.99" y1="243.39" x2="210.86" y2="251.52"/>
          <polyline class="cls-4" points="235.8 243.39 364.92 243.39 368.98 247.44 368.98 263.62"/>
          <line class="cls-4" x1="360.8" y1="243.36" x2="368.96" y2="251.52"/>
          <polyline class="cls-4" points="235.79 286.9 214.89 286.9 210.84 282.85 210.84 263.14"/>
          <polyline class="cls-4" points="215.91 283.82 210.86 278.77 218.93 286.85"/>
          <polyline class="cls-4" points="363.9 283.82 368.96 278.77 360.88 286.85"/>
        </g>
      </g>
    </g>
    <g>
      <polygon class="cls-18" points="214.9 291.34 282.42 291.34 286.48 295.39 286.48 334.36 282.42 338.41 214.9 338.41 210.84 334.36 210.84 295.39 214.9 291.34"/>
      <g>
        <polyline class="cls-4" points="235.8 338.66 282.42 338.66 286.47 334.6 286.47 311.33"/>
        <g>
          <line class="cls-4" x1="283.45" y1="296.54" x2="283.45" y2="333.7"/>
          <line class="cls-4" x1="214.03" y1="296.54" x2="214.03" y2="333.7"/>
          <polyline class="cls-4" points="235.8 291.58 214.89 291.58 210.84 295.63 210.84 311.81"/>
          <line class="cls-4" x1="218.99" y1="291.58" x2="210.86" y2="299.71"/>
          <polyline class="cls-4" points="235.8 291.58 282.42 291.58 286.47 295.63 286.47 311.81"/>
          <line class="cls-4" x1="278.3" y1="291.56" x2="286.45" y2="299.71"/>
          <polyline class="cls-4" points="235.79 338.66 214.89 338.66 210.84 334.6 210.84 311.33"/>
          <polyline class="cls-4" points="215.91 335.58 210.86 330.52 218.93 338.6"/>
          <polyline class="cls-4" points="281.4 335.58 286.45 330.52 278.38 338.6"/>
        </g>
      </g>
    </g>
    <g>
      <polygon class="cls-18" points="297.38 291.34 364.91 291.34 368.96 295.39 368.96 334.36 364.91 338.41 297.38 338.41 293.33 334.36 293.33 295.39 297.38 291.34"/>
      <g>
        <polyline class="cls-4" points="318.29 338.66 364.9 338.66 368.96 334.6 368.96 311.33"/>
        <g>
          <line class="cls-4" x1="365.94" y1="296.54" x2="365.94" y2="333.7"/>
          <line class="cls-4" x1="296.52" y1="296.54" x2="296.52" y2="333.7"/>
          <polyline class="cls-4" points="318.29 291.58 297.38 291.58 293.32 295.63 293.32 311.81"/>
          <line class="cls-4" x1="301.48" y1="291.58" x2="293.34" y2="299.71"/>
          <polyline class="cls-4" points="318.29 291.58 364.9 291.58 368.96 295.63 368.96 311.81"/>
          <line class="cls-4" x1="360.78" y1="291.56" x2="368.94" y2="299.71"/>
          <polyline class="cls-4" points="318.28 338.66 297.38 338.66 293.32 334.6 293.32 311.33"/>
          <polyline class="cls-4" points="298.4 335.58 293.34 330.52 301.42 338.6"/>
          <polyline class="cls-4" points="363.88 335.58 368.94 330.52 360.86 338.6"/>
        </g>
      </g>
    </g>
    <g>
      <polygon class="cls-18" points="399.36 186.65 549.39 186.65 553.45 190.7 553.45 226.67 549.39 230.73 399.36 230.73 395.31 226.67 395.31 190.7 399.36 186.65"/>
      <g>
        <polyline class="cls-4" points="420.27 230.97 549.39 230.97 553.44 226.91 553.44 207.11"/>
        <g>
          <line class="cls-4" x1="550.42" y1="191.85" x2="550.42" y2="226.01"/>
          <line class="cls-4" x1="398.5" y1="191.85" x2="398.5" y2="226.01"/>
          <polyline class="cls-4" points="420.27 186.89 399.36 186.89 395.3 190.94 395.3 207.59"/>
          <line class="cls-4" x1="403.46" y1="186.89" x2="395.32" y2="195.02"/>
          <polyline class="cls-4" points="420.27 186.89 549.39 186.89 553.44 190.94 553.44 207.59"/>
          <line class="cls-4" x1="545.27" y1="186.87" x2="553.42" y2="195.02"/>
          <polyline class="cls-4" points="420.26 230.97 399.36 230.97 395.3 226.91 395.3 207.11"/>
          <polyline class="cls-4" points="400.38 227.89 395.32 222.84 403.4 230.91"/>
          <polyline class="cls-4" points="548.37 227.89 553.42 222.84 545.35 230.91"/>
        </g>
      </g>
    </g>
    <g>
      <polygon class="cls-18" points="399.36 239.05 549.39 239.05 553.45 243.11 553.45 279.08 549.39 283.13 399.36 283.13 395.31 279.08 395.31 243.11 399.36 239.05"/>
      <g>
        <polyline class="cls-4" points="420.27 283.38 549.39 283.38 553.44 279.32 553.44 259.52"/>
        <g>
          <line class="cls-4" x1="550.42" y1="244.25" x2="550.42" y2="278.42"/>
          <line class="cls-4" x1="398.5" y1="244.25" x2="398.5" y2="278.42"/>
          <polyline class="cls-4" points="420.27 239.3 399.36 239.3 395.3 243.35 395.3 260"/>
          <line class="cls-4" x1="403.46" y1="239.3" x2="395.32" y2="247.43"/>
          <polyline class="cls-4" points="420.27 239.3 549.39 239.3 553.44 243.35 553.44 260"/>
          <line class="cls-4" x1="545.27" y1="239.27" x2="553.42" y2="247.43"/>
          <polyline class="cls-4" points="420.26 283.38 399.36 283.38 395.3 279.32 395.3 259.52"/>
          <polyline class="cls-4" points="400.38 280.3 395.32 275.24 403.4 283.32"/>
          <polyline class="cls-4" points="548.37 280.3 553.42 275.24 545.35 283.32"/>
        </g>
      </g>
    </g>
    <g>
      <polygon class="cls-18" points="399.36 291.46 549.39 291.46 553.45 295.52 553.45 331.48 549.39 335.54 399.36 335.54 395.31 331.48 395.31 295.52 399.36 291.46"/>
      <g>
        <polyline class="cls-4" points="420.27 335.78 549.39 335.78 553.44 331.73 553.44 311.92"/>
        <g>
          <line class="cls-4" x1="550.42" y1="296.66" x2="550.42" y2="330.82"/>
          <line class="cls-4" x1="398.5" y1="296.66" x2="398.5" y2="330.82"/>
          <polyline class="cls-4" points="420.27 291.7 399.36 291.7 395.3 295.76 395.3 312.41"/>
          <line class="cls-4" x1="403.46" y1="291.7" x2="395.32" y2="299.84"/>
          <polyline class="cls-4" points="420.27 291.7 549.39 291.7 553.44 295.76 553.44 312.41"/>
          <line class="cls-4" x1="545.27" y1="291.68" x2="553.42" y2="299.84"/>
          <polyline class="cls-4" points="420.26 335.78 399.36 335.78 395.3 331.73 395.3 311.92"/>
          <polyline class="cls-4" points="400.38 332.7 395.32 327.65 403.4 335.73"/>
          <polyline class="cls-4" points="548.37 332.7 553.42 327.65 545.35 335.73"/>
        </g>
      </g>
    </g>
    <g>
      <polygon class="cls-18" points="399.36 117.64 549.39 117.64 553.45 121.7 553.45 174.16 549.39 178.22 399.36 178.22 395.31 174.16 395.31 121.7 399.36 117.64"/>
      <g>
        <polyline class="cls-4" points="420.27 178.46 549.39 178.46 553.44 174.4 553.44 137.63"/>
        <g>
          <line class="cls-4" x1="550.42" y1="122.84" x2="550.42" y2="173.5"/>
          <line class="cls-4" x1="398.5" y1="122.84" x2="398.5" y2="173.5"/>
          <polyline class="cls-4" points="420.27 117.88 399.36 117.88 395.3 121.94 395.3 138.12"/>
          <line class="cls-4" x1="403.46" y1="117.88" x2="395.32" y2="126.02"/>
          <polyline class="cls-4" points="420.27 117.88 549.39 117.88 553.44 121.94 553.44 138.12"/>
          <line class="cls-4" x1="545.27" y1="117.86" x2="553.42" y2="126.02"/>
          <polyline class="cls-4" points="420.26 178.46 399.36 178.46 395.3 174.4 395.3 137.63"/>
          <polyline class="cls-4" points="400.38 175.38 395.32 170.33 403.4 178.4"/>
          <polyline class="cls-4" points="548.37 175.38 553.42 170.33 545.35 178.4"/>
        </g>
      </g>
    </g>
    <line class="cls-4" x1="556.12" y1="597.06" x2="556.14" y2="724.92"/>
    <line class="cls-4" x1="206.87" y1="597.06" x2="206.89" y2="724.92"/>
    <polyline class="cls-4" points="228.64 592.1 207.73 592.1 203.67 596.16 203.67 612.01"/>
    <line class="cls-4" x1="211.83" y1="592.1" x2="203.69" y2="600.24"/>
    <polyline class="cls-4" points="228.64 592.1 555.08 592.1 559.14 596.16 559.14 612.01"/>
    <line class="cls-4" x1="550.96" y1="592.08" x2="559.12" y2="600.24"/>
    <polyline class="cls-4" points="228.65 729.88 207.75 729.88 203.69 725.82 203.67 611.52"/>
    <polyline class="cls-4" points="208.77 726.8 203.71 721.75 211.79 729.82"/>
    <polyline class="cls-4" points="228.66 729.88 555.1 729.88 559.16 725.82 559.14 611.52"/>
    <polyline class="cls-4" points="554.08 726.8 559.14 721.75 551.06 729.82"/>
    <line class="cls-4" x1="188.01" y1="597.07" x2="188.03" y2="724.93"/>
    <line class="cls-4" x1="21.85" y1="597.06" x2="21.87" y2="724.92"/>
    <polyline class="cls-4" points="43.62 592.1 22.71 592.1 18.66 596.16 18.66 612.01"/>
    <line class="cls-4" x1="26.81" y1="592.1" x2="18.68" y2="600.24"/>
    <polyline class="cls-4" points="43.62 592.1 186.97 592.11 191.03 596.17 191.03 612.02"/>
    <line class="cls-4" x1="182.85" y1="592.09" x2="191.01" y2="600.25"/>
    <polyline class="cls-4" points="43.63 729.88 22.73 729.88 18.68 725.82 18.66 611.52"/>
    <polyline class="cls-4" points="23.75 726.8 18.7 721.75 26.77 729.82"/>
    <polyline class="cls-4" points="43.64 729.88 186.99 729.89 191.05 725.84 191.03 611.54"/>
    <polyline class="cls-4" points="185.97 726.81 191.03 721.76 182.95 729.84"/>
  </g>
  <g id="Camada_6" data-name="Camada 6">
    <path class="cls-19" d="m219.11,7.99l36.74-2.81-27.41-2.37-24.74,1.48-26.22-2.22-25.48,1.48,21.63,1.48-24.44,2.96-27.41-1.93s14.67-.89,13.93-1.04-16.44-1.63-16.44-1.63l-59.85,4.59,19.41,1.93L8.59,14.07l44.44,4-26.96.74,25.04,2.37-37.63,2.81,32,3.26L0,30.96l62.81,4.44s88,22.37,88.59,22.52,8.15,13.93,8.15,13.93l-37.48,4.15,26.81,3.41-39.85,2.67,55.41,3.85-23.7,1.78s22.22,2.52,23.11,2.37,11.87-.89,12.45-.74,19.55,2.07,19.55,2.07l31.26-3.11s10.96,1.63,10.67,2.07-31.11,2.96-31.11,2.96c0,0,46.52,4,46.96,3.85s8.15-.89,8.15-.89l-14.37-2.07,22.67-2.07,19.41,1.63,16.59-.89,14.67,1.93,48.15-3.85-12.15-1.04,49.78-5.93,56.59-45.93,95.85-4.15-16.89-1.93,27.41-2.67-70.67-8.3s-25.04,3.11-25.48,3.11-10.96-2.37-10.96-2.37c0,0,27.26-1.93,26.52-2.07s-19.11-1.93-19.56-1.93-16.74,1.63-17.19,1.63-15.11-1.63-15.11-1.63c0,0-19.85,1.33-18.96,1.33s16.3,1.93,16.3,1.93l-18.37,1.04-17.63-1.48,8.74-1.48-11.56-.59-39.26,3.26,10.52,1.19s-15.26,1.78-15.85,1.63-23.7-2.22-23.7-2.22l46.96-4.3-83.26-5.78,21.19-2.07-39.41-2.96-38.67,3.26-14.96-2.52Z"/>
    <path class="cls-19" d="m151.96,97c.89-.09,17.38-1.4,17.38-1.4l15.86,1.23s-15.69,1.77-15.92,1.77-17.31-1.6-17.31-1.6Z"/>
  </g>
  <g id="Camada_4" data-name="Camada 4">
    <line class="cls-4" x1="556.12" y1="597.06" x2="556.14" y2="724.92"/>
    <line class="cls-4" x1="206.87" y1="597.06" x2="206.89" y2="724.92"/>
    <polyline class="cls-4" points="228.64 592.1 207.73 592.1 203.67 596.16 203.67 612.01"/>
    <line class="cls-4" x1="211.83" y1="592.1" x2="203.69" y2="600.24"/>
    <polyline class="cls-4" points="228.64 592.1 555.08 592.1 559.14 596.16 559.14 612.01"/>
    <line class="cls-4" x1="550.96" y1="592.08" x2="559.12" y2="600.24"/>
    <polyline class="cls-4" points="228.65 729.88 207.75 729.88 203.69 725.82 203.67 611.52"/>
    <polyline class="cls-4" points="208.77 726.8 203.71 721.75 211.79 729.82"/>
    <polyline class="cls-4" points="228.66 729.88 555.1 729.88 559.16 725.82 559.14 611.52"/>
    <polyline class="cls-4" points="554.08 726.8 559.14 721.75 551.06 729.82"/>
    <line class="cls-4" x1="188.01" y1="597.07" x2="188.03" y2="724.93"/>
    <line class="cls-4" x1="21.85" y1="597.06" x2="21.87" y2="724.92"/>
    <polyline class="cls-4" points="43.62 592.1 22.71 592.1 18.66 596.16 18.66 612.01"/>
    <line class="cls-4" x1="26.81" y1="592.1" x2="18.68" y2="600.24"/>
    <polyline class="cls-4" points="43.62 592.1 186.97 592.11 191.03 596.17 191.03 612.02"/>
    <line class="cls-4" x1="182.85" y1="592.09" x2="191.01" y2="600.25"/>
    <polyline class="cls-4" points="43.63 729.88 22.73 729.88 18.68 725.82 18.66 611.52"/>
    <polyline class="cls-4" points="23.75 726.8 18.7 721.75 26.77 729.82"/>
    <polyline class="cls-4" points="43.64 729.88 186.99 729.89 191.05 725.84 191.03 611.54"/>
    <polyline class="cls-4" points="185.97 726.81 191.03 721.76 182.95 729.84"/>
  </g>
  <g id="Camada_7" data-name="Camada 7">
    <polygon class="cls-18" points="250.27 83.57 252.45 85.29 275.35 85.29 281.3 83.27 250.27 83.57"/>
    <polygon class="cls-18" points="544.51 83.54 542.33 85.27 519.43 85.27 513.48 83.25 544.51 83.54"/>
    <polygon class="cls-18" points="250.27 24.24 252.45 22.52 275.35 22.52 281.3 24.54 250.27 24.24"/>
    <polygon class="cls-18" points="544.51 24.26 542.33 22.54 519.43 22.54 513.48 24.56 544.51 24.26"/>
    <polygon class="cls-18" points="245.98 24.52 549.14 24.52 551.66 27.04 551.66 80.56 549.14 83.27 246.24 83.27 246.6 80.25 246.6 27.31 245.98 24.52"/>
    <path class="cls-18" d="m243.92,73.56c-.72.09-1.51.01-2.14.29-1.27.56-1.23-.56-1.52-1.11-.24-.46.41-.5.64-.55,1-.22,2.01-.35,3.03-.51v1.88Z"/>
    <path class="cls-21" d="m77.81,5.54c.22.98-.34,1.9-.21,2.88.13.92.14,1.85.27,2.76.11.78.73,1.2,1.32,1.61,1.25.87,2.16,2.03,2.83,3.4-2.88-2.81-6.67-4.3-9.78-6.77-1.35-1.07-2.27-2.51-3.09-4.02-.92,1.22-.98,3.61.2,6.65-1.93-.69-3.92-.5-5.83-.87-.28-.05-.71-.17-.86.12-.19.38.26.45.5.62,1.35.99,2.52,2.14,3.27,3.67.47.95.27,1.58-.65,2.18-1.65,1.08-3.41,1.92-5.17,2.79-1.42.7-2.81,1.43-4.01,2.49-.22.19-.69.24-.52.62.14.31.58.19.85.12,1.54-.37,3.07-.31,4.59.04,1.59.37,3.05,2.14,2.56,4.14-.3,1.22-.71,2.47-.78,4,3.57-3.13,7.48-5.2,12.13-6.37-1.55-.41-2.78-.85-4.14-1.04,2.94-2.9,6.69-3.43,10.6-3.49-2.35.63-4.77,1.08-7.03,2.56,1.37.43,2.58.81,3.97,1.24-2.53,1.51-4.55,3.38-5.64,6.21,1.62-.96,3.38-1.18,5.11-.88,1.71.3,3.29,1.01,4.05,2.99h-3.51c-3.88,0-7.75-.04-11.63.02-1.51.02-3.01.28-4.54.23-.63-.02-.9-.2-1.14-.84-.89-2.29-.92-4.41.8-6.34.44-.49.05-.61-.31-.84-1.8-1.14-3.77-1.01-5.74-.82-.71.07-1.4.27-2.31.45,1.04-2.35,2.79-3.67,4.73-4.71,1.65-.89,3.44-1.52,5.11-2.37,1.89-.95,2.1-2.36.65-3.87-.51-.53-1-1.07-1.64-1.47-.51-.32-.98-.74-1.51-1.06-.15-.09-.35-.28-.35-.42,0-.34.33-.22.54-.26,1.77-.39,3.54-.29,5.32-.09.38.04.76.08,1.33.14-1.06-2.49-.89-4.75.9-6.96,1.43,3.95,4.81,5.6,8.07,7.61-.01-2.13-.61-4.12-.03-6.1.23,0,.46,0,.69,0Z"/>
    <path class="cls-21" d="m83.92,5.07c.1.72-.21,1.38-.13,2.15.17,1.66,1.12,2.72,2.21,3.79,2.26,2.22,4.7,4.26,6.48,6.92.09.13.21.24.03.47-.45-.51-.85-1.05-1.33-1.52-2.09-2.04-4.26-4-6.29-6.1-1.57-1.62-2.98-3.4-3.95-5.48,1,.03,1.97-.38,2.98-.23Z"/>
    <path class="cls-18" d="m41.17,76.04c-1.92.27-3.83.54-5.75.81-2.58.37-5.16.78-7.74,1.12-1.67.22-3.36.37-5.01.74-.35.08-.51-.09-.49-.44,0-.23,0-.47,0-.7,0-9.46.02-18.91-.02-28.37,0-1.08.43-1.36,1.38-1.44,2.37-.22,4.74-.47,7.08-.9.81-.15,1.23,0,1.22,1.04-.05,8.48-.02,16.96-.04,25.44,0,.82.1,1.13,1.09,1.23,2.77.28,5.52.81,8.28,1.24,0,.08,0,.16,0,.24Z"/>
    <path class="cls-18" d="m188.13,74.36c-3,1.54-6.15,1.59-9.36,1.1-.19-.03-.39-.02-.59-.01-3.81.07-7.61-.35-11.41-.52-3.59-.15-7.19-.45-10.78-.69-3.4-.22-6.8-.46-10.19-.71-3.24-.23-6.48-.46-9.72-.7-3.4-.25-6.8-.47-10.19-.7-3.59-.25-7.18-.51-10.78-.71-2.63-.14-5.26-.33-7.89-.47-3.22-.18-6.44-.29-9.65-.47-5.37-.3-10.74-.29-16.11-.5-3.59-.14-7.18-.25-10.76-.12-3.2.12-6.39.05-9.58.21-2.83.14-5.66.25-8.48.48-4.18.35-8.36.68-12.52,1.33-2.04.32-4.11.52-6.14.94-.31.06-.84.17-.73-.4.09-.48-.51-1.26.43-1.43,1.55-.28,3.1-.51,4.66-.71,2.67-.33,5.35-.64,8.03-.92,1.15-.12,2.32-.15,3.48-.2,1.86-.08,3.73-.23,5.58-.34,4.35-.26,8.71-.25,13.06-.48,6.37-.33,12.74-.2,19.1-.11,2.96.04,5.92,0,8.88.18,3.69.22,7.37.35,11.06.49,2.71.11,5.42.29,8.13.46,3.44.23,6.87.48,10.31.69,2.77.17,5.54.43,8.31.7,3.81.36,7.61.71,11.43.97,3.05.2,6.09.48,9.14.69,3.67.26,7.34.53,11.01.72,2.79.14,5.57.32,8.36.47,4,.21,8,.44,12,.45.63,0,1.25.2,1.91.31Z"/>
    <path class="cls-18" d="m228.93,72.82c-7.45.81-14.82.62-22.37,1.05,1.17-1.17,2.54-1.62,3.76-2.23,2.45-1.22,4.95-2.36,7.64-3.02,3.84-.94,7.09.11,9.86,2.82.38.37.86.67,1.12,1.37Z"/>
    <path class="cls-21" d="m98.42,33.69c-.69,0-1.15-.01-1.61,0-3.19.08-6.36-.29-9.55-.32-.49,0-.98.03-1.46.09-.96.12-1.04-.38-.83-1.11.26-.92.45-1.87,1-2.67.51-.73.13-.98-.52-1.11-.77-.15-1.52-.41-2.48-.26.59-.82,1.38-.57,1.94-.66,2.21-.35,4.46-.5,6.69-.07,1.11.21,1.63,1.12,1.19,2.24-.25.64-.62,1.22-.99,1.92,2.29.17,4.65.14,6.59,1.93Z"/>
    <path class="cls-18" d="m233.59,74.38c.25.08.51.13.77.19-10.26,1.36-20.58,1.74-31.12,1.53.94-.96,1.75-1.65,3.05-1.62,4.21.09,8.42-.18,12.63-.29"/>
    <path class="cls-20" d="m37.64,73.62c3.25-.4,6.49-.86,9.74-1.19,2.43-.25,4.87-.33,7.3-.51.66-.05.91.16.87.84-.05.97-.04,1.95,0,2.93.03.6-.24.77-.77.69-2.84-.45-5.69-.91-8.53-1.34-2.28-.35-4.56-.7-6.85-.97-.62-.07-1.19-.25-1.76-.44Z"/>
    <path class="cls-18" d="m50.72,77.26c-9.46,1.23-18.92,2.47-28.39,3.7-.32-1.42-.26-1.57,1.11-1.75,3.65-.49,7.31-.92,10.96-1.43,3-.42,5.98-.95,8.97-1.37,1.27-.18,2.56-.01,3.82.23,1.17.22,2.34.4,3.53.63Z"/>
    <path class="cls-18" d="m86.64,36.74c-.03-.13-.06-.17-.05-.2.43-1.68.43-1.67,2.24-1.68,2.8-.01,5.59.39,8.39.25.33-.02.67.2,1,.2.48,0,.86.03.77.67-.08.58-.21,1.03-.96.99-1.47-.07-2.93-.05-4.41-.2-1.93-.19-3.9-.05-5.85-.05-.38,0-.77,0-1.13,0Z"/>
    <path class="cls-18" d="m89.67,21.23c1.85.79,2.9,2.2,3.6,3.93-1.96-.11-3.08-1.3-3.6-3.93Z"/>
    <path class="cls-1" d="m40.31,34.76c-.12-.2-.25-.41-.28-.63-.15-1.07-.91-1.39-1.82-1.61-1.32-.31-1.54-.19-1.91,1.19-.15.55-.25,1.11-.41,1.66-.14.47-.17.75-.59.65-.64-.15-.45-.6-.42-.86.09-.79.1-.65.26-1.43.02-.08.22-1.12.27-1.14,1.63-.78.13-1.2-.2-1.74-.31-.5-.72-.49-1.17-.19-.91.6-2.1.86-2.5,2.08-.44,2.8-.21,5.6.3,8.58-1-.53-1.09-1.24-1.21-1.97-.19-1.19-.15-2.4-.28-3.58-.06-.5.19-1.42-.52-1.57-.66-.14-1.13.57-1.58,1.04-.38.4-.27.94-.16,1.33.2.69.1,1.39.22,2.07.28,1.72.09,3.7,2.52,4.58h1.61v-1.04l.18-1.12c.8.27,2.27,1.37,2.81.87.46-.43-.35-1.29-.43-2,0-.03,0-.07-.01-.1.74-.15,1.4-.18,1.89.61.32.51.82.35.91-.2.09-.63.01-.96.32-1.81.55-1,.57-1.4.57-1.4l.71-.37,1.46-1.57c-.2-.03-.39-.13-.52-.34Zm-5.91,3.54c-.26-1.27.89-.65,1.31-1.03.25.56-.08,1.19.29,1.74-.79.14-1.41.19-1.59-.71Z"/>
    <path class="cls-10" d="m93.28,25.13c-.43-1.78-1.77-3.01-3.65-3.9.38,1.99,1.18,3.63,3.65,3.9Z"/>
    <path class="cls-13" d="m243.92,74.38c-84.97,9.26-158.29-12-211.48-.32v-36.2c53.19-11.68,126.52,9.58,211.48.32v36.2Z"/>
    <path class="cls-12" d="m32.43,40.37c53.19-11.68,126.52,9.58,211.48.32"/>
    <path class="cls-12" d="m32.43,71.15c53.19-11.68,126.52,9.58,211.48.32"/>
    <polyline class="cls-13" points="32.43 43.56 21.24 45.25 21.24 81.83 56.08 77.09 32.43 74.06 32.43 40.77"/>
    <path class="cls-1" d="m40.83,35.11l1.52-.51,19.72-1.02.95.81-22.63,1.99s-.77-.82-.67-.87,1.11-.4,1.11-.4Z"/>
    <line class="cls-6" x1="56.08" y1="77.09" x2="56.08" y2="70.91"/>
    <line class="cls-12" x1="21.24" y1="78.96" x2="45.54" y2="75.66"/>
    <line class="cls-12" x1="21.24" y1="47.59" x2="32.43" y2="46.07"/>
    <g>
      <path class="cls-11" d="m108.93,16.49c1.08,0,2.14,0,3.19,0,.24,0,.39.1.18.36-.13.16-.14.36-.14.56,0,1.29,0,2.59.01,3.88.01.86.43,1.28,1.22,1.27.69,0,1.14-.37,1.16-1.07.03-1.43.01-2.85,0-4.28,0-.11-.04-.24-.1-.32-.27-.33-.09-.42.22-.42,1.64,0,3.28,0,4.92,0,.21,0,.33.12.45.25.94,1,1.89,2.01,2.83,3.01.06-.04.11-.08.17-.13,0-.74.02-1.48,0-2.21-.01-.29-.32-.39-.53-.54-.15-.1-.3-.19-.53-.34h4.17s0,.06-.02.06c-.91.31-1.12.95-1.09,1.87.07,1.99.02,3.99.02,6.1-1.62-1.58-3.16-3.08-4.76-4.64,0,1.19-.01,2.31,0,3.43,0,.31.32.43.55.58.18.11.36.21.62.37h-4.31c.14-.2.36-.28.56-.37.45-.21.58-.55.58-1.03-.02-1.64,0-3.28,0-4.92,0-.11,0-.23,0-.34-.03-.35-.47-.87-.75-.88-.31-.01-.8.53-.81.92,0,1.18,0,2.36,0,3.54,0,1.62-.75,2.65-2.18,3.05-1.68.47-3.42-.08-4.21-1.33-.33-.52-.37-1.11-.38-1.7-.02-1.05-.04-2.1,0-3.15.03-.64-.16-1.07-.75-1.33-.11-.05-.25-.08-.31-.27Z"/>
      <path class="cls-11" d="m153.34,24.31h-4.27s0-.1.02-.1c.91-.31,1.13-.95,1.08-1.87-.08-1.39-.05-2.79,0-4.18.02-.67-.16-1.15-.77-1.44-.07-.03-.13-.09-.2-.14,0,0,0-.03,0-.09.76,0,1.52,0,2.28,0,.22,0,.32.15.44.27.98.96,1.97,1.92,3,2.93,0-.77,0-1.46,0-2.16,0-.32-.26-.47-.5-.62-.18-.11-.35-.22-.61-.38h4.21s-.01.07-.03.07c-.91.31-1.13.94-1.09,1.86.07,1.99.02,3.99.02,6.12-1.62-1.58-3.16-3.09-4.78-4.66,0,1.17,0,2.24,0,3.32,0,.29.17.48.42.62.24.13.46.28.78.47Z"/>
      <path class="cls-11" d="m133.28,23.97c-1.39.41-2.88.79-4.45.4-1.99-.5-3.18-2.18-3.02-4.25.15-1.94,1.66-3.45,3.64-3.65.98-.1,1.93.06,2.87.28.19.05.26.13.28.33.06.7.14,1.4.21,2.12-.2.02-.3-.13-.42-.21-.78-.48-1.61-.72-2.53-.66-.93.06-1.55.6-1.75,1.51-.07.32-.07.65-.04.98.11,1.35,1.31,2.16,2.61,1.75.14-.05.22-.11.22-.27,0-.38,0-.75-.01-1.13-.01-.26-.13-.46-.37-.6-.24-.13-.47-.29-.75-.46h3.55c-.35,1.29-.3,2.52-.04,3.85Z"/>
      <path class="cls-11" d="m139.39,19.25v2.26c-.76-.46-1.6-.17-2.41-.24-.11-.01-.16.06-.18.18-.16.77,0,.96.78.96.18,0,.36,0,.54,0,.84.05,1.65,0,2.36-.77-.2.9-.37,1.63-.52,2.38-.06.33-.28.29-.51.29-1.97,0-3.94,0-5.95,0,.19-.26.48-.34.71-.48.27-.16.39-.37.39-.68,0-1.82,0-3.64,0-5.46,0-.33-.12-.56-.41-.72-.21-.12-.41-.26-.62-.39.04-.15.16-.08.24-.08,1.84,0,3.68,0,5.51,0,.28,0,.41.04.42.36.04.68.13,1.36.2,2.15-.9-.94-1.96-.56-2.95-.59-.4-.01-.14.42-.2.64-.04.15-.04.34.22.32.78-.04,1.57.09,2.35-.11Z"/>
      <path class="cls-11" d="m157.92,21.13c.43.32.79.6,1.15.86.58.43,1.22.7,1.97.62.29-.03.57-.08.63-.43.07-.34-.11-.58-.4-.71-.3-.13-.61-.22-.92-.33-.41-.15-.84-.29-1.24-.47-.85-.38-1.31-1.04-1.27-1.97.03-.97.46-1.73,1.4-2.13.85-.36,1.73-.32,2.61-.16q1.3.23,1.37,1.55c.02.32,0,.64,0,1-.55-.3-1.08-.59-1.67-.74-.39-.09-.77-.14-1.17-.09-.23.03-.48.08-.52.36-.04.29.19.4.42.47.53.16,1.08.28,1.6.46,1.26.42,1.92,1.26,1.95,2.42.03,1-.41,1.75-1.3,2.19-1.41.7-2.85.39-4.28.07-.16-.04-.18-.16-.19-.3-.05-.86-.1-1.72-.15-2.68Z"/>
      <path class="cls-11" d="m106.07,16.58c-1.12-.2-2.26-.06-3.39-.1-.71-.02-1.41-.05-2.12-.5.19.73.5,1.26,1.02,1.63.38.27.49.61.49,1.05-.01,1.25-.06,2.49.01,3.74.05.86-.16,1.47-1.01,1.77-.07.02-.12.06-.11.12,1.57,0,3.14.06,4.71-.01,1.99-.09,3.44-1.67,3.56-3.71.11-1.94-1.22-3.63-3.15-3.97Zm.85,4.16c-.09,1.08-.72,1.65-1.8,1.67q-.88.02-.88-.85c0-.39,0-.79,0-1.18,0-.56.01-1.11,0-1.67,0-.26.07-.36.33-.33.23.02.46,0,.69,0,.92.06,1.53.61,1.64,1.52.04.27.04.56.02.83Z"/>
      <path class="cls-11" d="m145.02,16.38c-1.42,0-2.68.54-3.41,1.53-.99,1.34-1.15,2.81-.43,4.3.74,1.55,2.11,2.2,3.76,2.22,1.71.02,3.11-.65,3.92-2.22,1.43-2.76-.6-5.82-3.84-5.83Zm-.03,6.19c-1.22-.02-2.01-.89-1.98-2.2.03-1.32.81-2.12,2.03-2.09,1.24.03,2.05.92,2.01,2.18-.04,1.25-.89,2.13-2.06,2.11Z"/>
    </g>
    <g>
      <path class="cls-5" d="m227.14,16.6h4.18s0,.06,0,.06c-1.01.33-1.14,1.07-1.11,2.02.07,1.92.02,3.85.02,5.89-1.59-1.55-3.12-3.04-4.72-4.61,0,.48,0,.87,0,1.26,0,.29,0,.58,0,.88-.02.91-.18,1.89,1.23,2.1-.05.03-.1.07-.15.1h-4.09s0-.07.02-.08c.93-.32,1.11-.99,1.06-1.9-.07-1.36-.05-2.73,0-4.09.02-.66-.16-1.13-.77-1.42-.07-.03-.13-.09-.2-.14,0,0,0-.03-.02-.09.78,0,1.55,0,2.32,0,.19,0,.29.14.39.26.93.99,1.86,1.99,2.79,2.98.07-.05.13-.1.2-.15,0-.69,0-1.37,0-2.06,0-.31-.26-.47-.5-.61-.18-.11-.35-.22-.62-.39Z"/>
      <path class="cls-5" d="m210.21,20.08c1.19,0,2.25,0,3.31,0,.21,0,.37.08.18.32-.14.18-.15.39-.15.6,0,.6,0,1.2,0,1.8,0,.38.01.74.32,1.06-1.47.46-2.92.81-4.43.48-2.05-.45-3.24-2.14-3.08-4.27.15-1.94,1.71-3.43,3.72-3.59.92-.07,1.81.09,2.7.29.26.06.28.23.3.43.07.66.13,1.32.2,1.99-.15.07-.23-.07-.32-.13-.77-.5-1.6-.76-2.53-.72-1.02.05-1.69.67-1.82,1.68-.05.37-.04.75.03,1.11.21,1.11,1.51,1.81,2.57,1.4.17-.06.17-.17.17-.3,0-.32,0-.65,0-.97,0-.34-.13-.59-.44-.75-.21-.11-.4-.25-.71-.44Z"/>
      <path class="cls-5" d="m231.24,21.19c.49.36.91.67,1.34.98.52.37,1.1.54,1.74.48.29-.03.56-.08.63-.42.07-.34-.12-.56-.4-.7-.22-.11-.45-.18-.68-.26-.46-.17-.92-.3-1.37-.5-.94-.42-1.42-1.15-1.35-2.04.08-1.1.65-1.85,1.66-2.16,1.16-.35,2.28-.09,3.4.18.2.05.19.19.2.33.04.64.07,1.28.11,1.98-.58-.33-1.12-.62-1.72-.76-.4-.09-.8-.14-1.2-.07-.21.04-.42.11-.45.37-.02.24.17.35.35.41.32.11.65.2.98.28.49.12.97.26,1.4.53.91.55,1.29,1.38,1.19,2.43-.09.97-.67,1.59-1.56,1.93-1.31.51-2.62.23-3.92-.06-.22-.05-.2-.21-.21-.38-.05-.82-.09-1.65-.15-2.57Z"/>
      <path class="cls-5" d="m188.33,16.67c-1.11-.19-2.24-.06-3.35-.1-.7-.02-1.4-.04-2.1-.5.18.72.49,1.25,1,1.61.38.27.49.6.48,1.04-.01,1.23-.06,2.47.01,3.7.05.85-.15,1.45-1,1.75-.06.02-.11.06-.11.12,1.55,0,3.11.06,4.66-.01,1.97-.09,3.41-1.65,3.52-3.67.11-1.92-1.21-3.59-3.12-3.93Zm.84,4.11c-.09,1.07-.71,1.63-1.78,1.65q-.87.02-.87-.84c0-.39,0-.78,0-1.17,0-.55.01-1.1,0-1.65,0-.25.07-.35.33-.33.23.02.45,0,.68,0,.91.06,1.51.6,1.63,1.5.04.27.04.55.02.82Z"/>
      <path class="cls-5" d="m203.45,24.31h3.86c-1.03-.57-1.29-1.62-1.67-2.59-.63-1.59-1.26-3.19-1.9-4.78-.06-.15-.06-.37-.31-.36-.93,0-1.86,0-2.79,0,.73.44.56.96.26,1.52-.08.16-.14.33-.21.49-.61,1.46-1.22,2.92-1.87,4.46-.6-.77-1.14-1.46-1.69-2.14-.14-.18-.09-.24.07-.37.76-.6,1.03-1.39.79-2.33-.24-.95-.92-1.44-1.85-1.55-1.51-.18-3.03-.03-4.55-.04.2.18.41.32.63.45.26.15.39.37.39.68,0,1.8,0,3.6,0,5.4,0,.33-.14.55-.42.71-.22.13-.44.27-.75.46h4.33c-1.27-.37-1.13-1.38-1.09-2.34,0-.03,0-.07,0-.1.04-.14-.11-.37.09-.42.16-.04.27.15.37.27.53.63,1.09,1.25,1.57,1.92.38.53.81.72,1.46.69,1.09-.06,2.18-.02,3.37-.02-.22-.19-.35-.3-.49-.41-.22-.17-.27-.36-.17-.63.1-.27.26-.32.51-.31.68.01,1.36,0,2.04,0,.19,0,.38-.04.48.22.09.25.13.46-.08.67-.14.14-.32.24-.4.45Zm-7.71-4.61c-.25.27-.62.29-.93.2-.26-.08-.14-.22-.11-.56.02-.18.01-.36,0-.53-.03-.52-.28-.71.34-.69.65.02.93.25.91.79,0,.28.03.58-.22.78Zm7.21,1.43c-.16,0-.78.01-.79.01-.41,0-.4.02,0-1.04.1-.25.2-.51.34-.88.23.63.42,1.15.62,1.66.07.19.05.25-.16.25Z"/>
      <path class="cls-5" d="m218.07,16.48c-.93.02-2.09.41-2.93,1.46-1.01,1.28-1.19,2.72-.53,4.2.68,1.54,1.99,2.21,3.61,2.3,2.37.14,4.25-1.42,4.48-3.65.24-2.36-1.68-4.31-4.63-4.32Zm.39,6.12c-1.19,0-1.98-.84-1.98-2.11,0-1.31.74-2.13,1.94-2.13,1.23,0,2.06.83,2.05,2.09,0,1.26-.84,2.16-2.01,2.15Z"/>
    </g>
    <g>
      <path class="cls-16" d="m173.89,23.46c.42.35.83.7,1.23,1.05.03.03.06.12.04.15-.72,1.43-1.69,2.6-3.36,2.92-1.52.3-2.83-.1-3.81-1.37-.02-.03-.04-.06-.07-.08-.05-.03-.13-.08-.17-.06-.05.02-.09.1-.1.16-.01.08,0,.16.02.24.01.07.03.14.05.21-.02.02-.04.04-.06.05-.04-.06-.06-.13-.11-.18-.7-.8-.98-1.75-.91-2.79.03-.49.17-.97.25-1.46.02-.12,0-.24,0-.36-.11.06-.21.11-.32.17-.04.02-.07.06-.12.11.17-1.09.76-1.85,1.63-2.52.01.16.04.27.03.37-.04.35-.1.69-.15,1.03,0,.05,0,.1,0,.19.56-.55,1.18-.97,1.91-1.32-.2.37-.33.7-.32,1.11.4-.35.81-.58,1.36-.41-.08.09-.14.15-.2.22-.58.64-.96,1.37-1.01,2.24-.03.49.08.95.34,1.36.47.74,1.35,1.01,2.14.64.69-.32,1.17-.86,1.57-1.48.04-.07.08-.13.14-.22Z"/>
      <path class="cls-16" d="m176.81,26.02c-.37.29-.41.88-.09,1.5-.07-.02-.12-.03-.16-.05-.59-.28-.91-.88-.87-1.57.01-.21.03-.43.03-.64,0-.38-.14-.71-.44-.95-.45-.38-.9-.77-1.36-1.13-.4-.31-.64-.69-.65-1.21,0-.21-.1-.37-.26-.5-.15-.13-.31-.24-.45-.37-.22-.21-.27-.46-.18-.79.11.45.43.54.79.59.09.01.19.02.28.03.25.04.39.19.43.43.02.09.03.17.05.26.04.18.15.3.35.29.5-.02.9.18,1.27.51.45.41.94.78,1.41,1.17.08.07.17.14.26.19.26.15.53.18.8.02.26-.16.38-.41.36-.72,0-.05,0-.09,0-.14.64.23.75,1.32.2,2.09.47.15,1.2-.08,1.49-.47.31-.43.18-1.01-.29-1.34-.06-.04-.13-.08-.21-.13.78-.21,1.91.59,2.08,1.48.13.67-.08,1.23-.58,1.69-.49.44-1.08.58-1.74.54.26.3.81.43,1.47.36-.64.64-1.38.86-2.2.76-1.08-.14-1.6-.87-1.8-1.88Z"/>
      <path class="cls-16" d="m169.94,20.47c.18-.41.5-.7.94-.95-.25-.07-.47-.13-.71-.19.41-.27.85-.35,1.33-.43-.69-.18-1.86.23-2.05.64.19.04.39.07.58.11-.65.24-1.22.59-1.76,1.04.04-.22.07-.4.09-.59.05-.41-.16-.68-.57-.71-.24-.02-.49,0-.77,0,.21-.14.4-.28.6-.4.29-.18.6-.33.89-.51.27-.17.29-.32.11-.58-.07-.1-.16-.2-.25-.28-.09-.08-.18-.16-.32-.27.22.01.41.01.59.03.18.02.36.05.54.07-.2-.58-.22-.76-.12-1.09.32.61.91.88,1.45,1.22.32.2.61.44.9.65-.1-.27-.29-.53-.57-.71-.2-.13-.27-.3-.29-.51-.04-.51,0-1.01.27-1.48.01.11.02.21.04.32.07.36.25.68.5.95.24.27.51.52.76.77.38.37.77.74,1.14,1.1-.02-.04-.04-.11-.09-.17-.22-.27-.43-.55-.66-.8-.2-.22-.43-.42-.66-.61-.25-.21-.33-.47-.3-.77.02-.21.08-.41.15-.62.08.69.49,1.18.95,1.63.27.26.55.51.82.78.33.33.6.7.69,1.18.01.05.02.11.02.16-.01.18,0,.34.2.45.08.04.1.18.17.31.14-.12.28-.24.42-.35.12.52-.26,1.37-.77,1.62.02-.31,0-.61-.32-.72-.26-.09-.54-.12-.82-.18.03-.07.07-.17.1-.27.08-.24.01-.38-.25-.39-.38-.02-.76.02-1.14.04-.14,0-.28.06-.42.13.21.03.43.06.63.09-.06.21-.14.4-.17.6-.04.27.08.36.35.24-.02.12-.04.23-.05.34-.04.31.06.41.36.38.03,0,.05,0,.08,0-.17.38-.73.72-1.27.69.08-.06.17-.12.24-.19.07-.07.12-.17.19-.28-.2.02-.35.04-.55.06.08-.11.14-.19.19-.27.37-.62.03-1.28-.69-1.32-.24-.01-.48.05-.73.08Zm2.57-1.68c.09.51.36.77.7.71-.14-.32-.35-.56-.7-.71Z"/>
      <path class="cls-16" d="m173.59,17.91c-.39-.41-.78-.82-1.18-1.23-.08-.08-.07-.15-.02-.25.24-.44.33-.9.23-1.4-.13-.63-.57-1-1.16-.97-.56.02-1.03.5-1.1,1.09,0,0,0,.01,0,.02-.03.65-.05,1.3-.08,1.96-.62-.31-1.02-.82-1.25-1.54-.26.52-.33,1.02-.25,1.54-.29-.3-.44-.67-.5-1.07-.27-1.88,1.07-3.41,2.97-3.43.54,0,1.07.02,1.58.22,1.34.53,2.01,1.95,1.62,3.41-.16.6-.51,1.29-.86,1.64Z"/>
      <path class="cls-16" d="m178.87,18.99c-1.27.02-2.29.59-3.18,1.45.31-.85.85-1.52,1.61-2.03-.06.11-.12.21-.16.32-.02.06,0,.14,0,.2.06,0,.14,0,.19-.02.16-.11.31-.23.46-.35.34-.28.68-.54,1.13-.63.02,0,.05,0,.1-.01-.13.1-.26.17-.35.27-.07.07-.09.18-.13.27.1.01.21.06.29.03.42-.14.85-.25,1.3-.21.81.08,1.47.45,2.07,1.02-.85-.08-1.62.06-2.35.48-.43-.27-.91-.33-1.41-.2-.39.1-.71.3-.97.61-.53.62-.95,1.31-1.3,2.05-.04.08-.07.15-.11.24-.35-.27-.69-.53-1.05-.8.99-1.29,2.14-2.39,3.86-2.68Z"/>
    </g>
    <path class="cls-10" d="m93.28,25.13c-.43-1.78-1.77-3.01-3.65-3.9.38,1.99,1.18,3.63,3.65,3.9Z"/>
    <path class="cls-10" d="m93.28,25.13c-.43-1.78-1.77-3.01-3.65-3.9.38,1.99,1.18,3.63,3.65,3.9Z"/>
    <path class="cls-1" d="m41.43,34.93c-.95-9.09,1.87-12.46,4.17-17.09.72-1.6-1.16-.8-1.72-.06,2.1-5.74,5.77-10.21,16.25-12.47,1.32-.23.57-1.99-2.07-1.61,4.98-1.88,12.9-3.05,19.03,1.66-.42,2.9-.44,3.1,0,6.19-3.67-2.11-6.78-4.92-7.89-7.9-1.43,2.15-1.7,4.57-1.15,6.92-3.05-.62-5.53-.02-7.38.37,12.07,8.74-3.04,6.1-6.61,14.1,3.19-.79,5.99-.64,8.53.85-1.63,1.96-2.59,4.39-.53,7.67l-20.63,1.36Z"/>
    <path class="cls-1" d="m89.3,37.99c-.2,1.81-3.94,5.06-8.71,4.68,1.4-.96,2.56-1.98,3.05-3.16-1.09.32-2.18.41-3.28.27,7.5-8.73-3.78-11.08-7.08-8.75,1.04-2.56,2.91-4.59,5.54-6.14-1.35-.59-2.08-.94-3.82-1.2,2.46-1.76,4.79-2.1,6.94-2.56-4.12-.54-7.83.55-10.85,3.47l4.03,1.06c-4.98,1.29-7.34,2.73-11.85,5.91,2.9-6.37-.71-8.79-7.19-7.92,7.51-5.66,15.64-4.82,6.5-12.28,1.83-.54,5.58-.14,6.68.49-.97-2.47-.8-4.64-.13-6.66,1.61,4.52,9.82,7.75,12.78,11.11-.64-2.08-1.92-3.33-3.83-4.45-.76-4.08-.05-7.88,1.55-11.49,2.99,12.83,6.56,9.64,13.49,18.77-4.37-8.83-12.67-8.04-7.88-17.76,1.24,11.99,14.83,13.82,14.18,25.22,1.32.62,1.86,1.31,1.67,2.5,1.12-.22,2.06-1.09,2.9-2.38.62,2.94-.78,8.82-4.55,10.47.05-3.07-1.37-5.41-7.55-5.43,4.57-6.39-6.62-4.63-9-3.56,1.28-.03,2.42.15,3.36.64-.97,1.5-1.56,2.99-1.4,4.48l2.59.89c-1.56,1.71-1.13,4.32,1.87,3.76Z"/>
    <path class="cls-10" d="m93.28,25.13c-.43-1.78-1.77-3.01-3.65-3.9.38,1.99,1.18,3.63,3.65,3.9Z"/>
    <polyline class="cls-7" points="244.52 56.91 244.52 17.97 246.6 27.31 246.6 80.49 244.52 89.82 244.52 50.88"/>
    <polyline class="cls-7" points="553.94 56.91 553.94 17.97 551.86 27.31 551.86 80.49 553.94 89.82 553.94 50.88"/>
    <g>
      <polyline class="cls-2" points="283.27 24.52 275.12 22.51 252.45 22.51 249.83 24.57"/>
      <g>
        <polyline class="cls-2" points="245.98 24.52 271.04 24.52 393.78 24.52"/>
        <polyline class="cls-2" points="271.04 24.52 279.19 26.54 393.78 26.54"/>
        <polyline class="cls-2" points="245.98 83.27 271.04 83.27 393.78 83.27"/>
        <polyline class="cls-2" points="271.04 83.27 279.19 81.25 393.78 81.25"/>
      </g>
      <polyline class="cls-2" points="283.27 83.27 275.12 85.29 252.45 85.29 249.83 83.22"/>
    </g>
    <g>
      <polyline class="cls-2" points="511.86 24.52 520.01 22.51 542.67 22.51 545.3 24.57"/>
      <g>
        <polyline class="cls-2" points="524.08 24.52 515.93 26.54 392.97 26.54"/>
        <polyline class="cls-2" points="392.97 83.27 524.08 83.27 549.14 83.27 551.86 80.56 551.66 58.69 551.66 27.04 549.14 24.52 524.08 24.52 392.97 24.52"/>
        <polyline class="cls-2" points="524.08 83.27 515.93 81.25 392.97 81.25"/>
      </g>
      <polyline class="cls-2" points="511.86 83.27 520.01 85.29 542.67 85.29 545.3 83.22"/>
    </g>
    <path class="cls-2" d="m553.94,38.36c11.25,0,14.67-1.06,16.21-3.33v37.56c-1.54,2.28-4.96,3.33-16.21,3.33"/>
    <path class="cls-2" d="m553.94,41.35c11.25,0,14.67-1.06,16.21-3.33"/>
    <path class="cls-2" d="m553.94,72.93c11.25,0,14.67-1.06,16.21-3.33"/>
    <path class="cls-1" d="m241.68,77.81c-3.88-3.85-8.01-4.93-12-3.8-14.52-22.44-38.87,28.42-52.95,2.52,15.44,2.63,18.71-15.06,48.7-10.43-4.53-2.59-10.81-2.56-17.91-1.31,3.86-3.07,8.79-5.25,15.21-5.37-9.16,5.01,2.38.58,9.02,3.14-13.17,1.78,9.04.73,9.93,15.25Z"/>
  </g>
</svg>