<?xml version="1.0" encoding="UTF-8"?>
<svg id="Camada_1" data-name="Camada 1" xmlns="http://www.w3.org/2000/svg" viewBox="0 0 579.56 612">
  <defs>
    <style>
      .cls-1 {
        stroke-width: 0px;
      }
    </style>
  </defs>
  <path class="cls-1" d="m547.61,234.13l-91.83,188.09-10.41,21.07-24.97,50.99c-105.1,52.81-200.57,47.35-289.02,0,0-26.01-78.04-286.16-78.04-286.16l156.09,208.12L235.43,0l26.01,364.21L443.55,52.03l-51.51,361.09-.52,3.12,2.6-3.12,153.49-178.98Z"/>
  <path class="cls-1" d="m455.78,422.22l-10.41,21.07c-50.99-12.49-104.32-19.25-157.91-25.75v-2.6c34.6-3.38,69.72-4.68,104.58-1.82l-.52,3.12,2.6-3.12c20.81,1.56,41.36,4.42,61.65,9.1Z"/>
  <path class="cls-1" d="m446.15,590.28c-116.29,29.14-242.46,30.96-357.18-6.76-34.86-14.05-86.37-32-88.97-76.22h2.6c3.64,19.25,21.07,30.18,37.72,38.24,126.95,47.87,269.25,45.01,402.97,30.96,37.2-5.98,147.77-29.92,118.37-83.77-11.19-13.27-28.62-21.59-46.05-28.36-20.29-7.8-41.1-14.05-62.44-19.25l10.41-21.33c20.81,5.2,41.1,11.97,60.87,20.81,128.77,68.68,2.08,126.43-78.3,145.68Z"/>
</svg>