<?xml version="1.0" encoding="iso-8859-1"?>
<!-- Uploaded to: SVG Repo, www.svgrepo.com, Generator: SVG Repo Mixer Tools -->
<!DOCTYPE svg PUBLIC "-//W3C//DTD SVG 1.1//EN" "http://www.w3.org/Graphics/SVG/1.1/DTD/svg11.dtd">
<svg fill="#000000" height="800px" width="800px" version="1.1" id="Capa_1" xmlns="http://www.w3.org/2000/svg" xmlns:xlink="http://www.w3.org/1999/xlink" 
	 viewBox="0 0 200 200" xml:space="preserve">
<path d="M169.453,18.647h-3.378V10h3.378c2.762,0,5-2.238,5-5s-2.238-5-5-5H30.547c-2.762,0-5,2.238-5,5v18.647V195
	c0,2.762,2.238,5,5,5h26.936h111.971c2.762,0,5-2.238,5-5V23.647C174.453,20.886,172.215,18.647,169.453,18.647z M52.482,190H35.547
	V28.647h16.936V190z M145.341,59.639H81.595c-2.762,0-5-2.238-5-5s2.238-5,5-5h63.746c2.762,0,5,2.238,5,5
	S148.103,59.639,145.341,59.639z M156.075,18.647H57.482H35.547V10h120.528V18.647z"/>
</svg>